<svg xmlns="http://www.w3.org/2000/svg" width="495" height="560" viewBox="0 0 495 560">
  <rect width="495" height="560" fill="#eef1f5"/>
  <rect x="213.5" y="20" width="68" height="46" rx="8" fill="#2f3542"/>
  <rect x="221.5" y="62" width="52" height="58" fill="#c8d6e5"/>
  <path d="M221.5 120 C221.5 160 30.0 170 30.0 210 L30.0 520 Q30.0 545 55.0 545 L440.0 545 Q465.0 545 465.0 520 L465.0 210 C465.0 170 273.5 160 273.5 120 Z" fill="#c8d6e5" stroke="#8395a7" stroke-width="3"/>
  <rect x="60.0" y="220" width="375" height="250" rx="10" fill="#ffffff"/>
  <text x="247.5" y="256" font-family="Helvetica, Arial, sans-serif" font-size="20" font-weight="700" text-anchor="middle" fill="#222f3e">Unlisted water bottle</text>
  <text x="247.5" y="284" font-family="Helvetica, Arial, sans-serif" font-size="16" text-anchor="middle" fill="#576574">750 ml</text>
  <g id="barcode" fill="#000000" data-origin="105.0" data-module="3" data-modules="95">
    <rect x="105.0" y="300" width="3" height="96"/>
    <rect x="111.0" y="300" width="3" height="96"/>
    <rect x="123.0" y="300" width="6" height="96"/>
    <rect x="132.0" y="300" width="3" height="96"/>
    <rect x="138.0" y="300" width="3" height="96"/>
    <rect x="147.0" y="300" width="9" height="96"/>
    <rect x="159.0" y="300" width="3" height="96"/>
    <rect x="165.0" y="300" width="12" height="96"/>
    <rect x="180.0" y="300" width="12" height="96"/>
    <rect x="195.0" y="300" width="3" height="96"/>
    <rect x="207.0" y="300" width="3" height="96"/>
    <rect x="216.0" y="300" width="3" height="96"/>
    <rect x="222.0" y="300" width="6" height="96"/>
    <rect x="234.0" y="300" width="6" height="96"/>
    <rect x="243.0" y="300" width="3" height="96"/>
    <rect x="249.0" y="300" width="3" height="96"/>
    <rect x="255.0" y="300" width="3" height="96"/>
    <rect x="270.0" y="300" width="3" height="96"/>
    <rect x="276.0" y="300" width="3" height="96"/>
    <rect x="291.0" y="300" width="3" height="96"/>
    <rect x="297.0" y="300" width="3" height="96"/>
    <rect x="312.0" y="300" width="3" height="96"/>
    <rect x="318.0" y="300" width="9" height="96"/>
    <rect x="330.0" y="300" width="3" height="96"/>
    <rect x="339.0" y="300" width="3" height="96"/>
    <rect x="354.0" y="300" width="3" height="96"/>
    <rect x="360.0" y="300" width="6" height="96"/>
    <rect x="372.0" y="300" width="6" height="96"/>
    <rect x="381.0" y="300" width="3" height="96"/>
    <rect x="387.0" y="300" width="3" height="96"/>
  </g>
  <text x="247.5" y="424" font-family="Menlo, Courier, monospace" font-size="20" text-anchor="middle" fill="#000000">4006381333931</text>
</svg>
